<svg width="17" height="16" viewBox="0 0 17 16" fill="none" xmlns="http://www.w3.org/2000/svg">
<path opacity="0.4" fill-rule="evenodd" clip-rule="evenodd" d="M9.00876 13.6937C8.80007 14.7243 7.89201 15.5 6.80302 15.5C5.71402 15.5 4.80596 14.7243 4.59736 13.6937H0.5L2.30083 10.0807V6.46776C2.30083 3.97362 4.31657 1.95166 6.80302 1.95166C9.28954 1.95166 11.3052 3.97362 11.3052 6.46776V10.0807L13.106 13.6937H9.00876ZM6.80302 14.5969C7.39025 14.5969 7.88488 14.2188 8.071 13.6937H5.53512C5.72115 14.2188 6.21579 14.5969 6.80302 14.5969ZM10.4048 10.0807V6.46776C10.4048 4.47255 8.79221 2.85492 6.80302 2.85492C4.81381 2.85492 3.20128 4.47255 3.20128 6.46776V10.0807L1.85061 12.7905H11.7553L10.4048 10.0807Z" fill="black"/>
<path fill-rule="evenodd" clip-rule="evenodd" d="M14.0751 0.983883C15.1462 0.983883 16.0145 1.85041 16.0145 2.91937C16.0145 3.98829 15.1462 4.85486 14.0751 4.85486C13.004 4.85486 12.1357 3.98829 12.1357 2.91937C12.1357 1.85041 13.004 0.983883 14.0751 0.983883Z" fill="#FD4948"/>
</svg>
