<svg width="16" height="17" viewBox="0 0 16 17" fill="none" xmlns="http://www.w3.org/2000/svg">
<path opacity="0.5" fill-rule="evenodd" clip-rule="evenodd" d="M8.00001 14.4999C7.4884 14.4999 6.98963 14.4537 6.50473 14.3734L3.00006 16.5001V12.9596C1.17275 11.6768 0 9.70954 0 7.49997C0 3.63407 3.58177 0.5 8.00001 0.5C12.4183 0.5 16 3.63407 16 7.49997C16 11.3661 12.4183 14.4999 8.00001 14.4999ZM8.00001 1.50017C4.13402 1.50017 1.00001 4.18644 1.00001 7.49997C1.00001 9.53325 2.18286 11.3269 3.98765 12.4121L3.95611 14.7314L6.30988 13.3165C6.85204 13.432 7.41613 13.5001 8.00001 13.5001C11.866 13.5001 15.0001 10.8138 15.0001 7.49997C15.0001 4.18644 11.866 1.50017 8.00001 1.50017ZM11.5 7.00005H4.50002C4.22388 7.00005 4 6.77608 4 6.50008C4 6.22382 4.22388 6.00003 4.50002 6.00003H11.5C11.7761 6.00003 12 6.22382 12 6.50008C12 6.77608 11.7761 7.00005 11.5 7.00005ZM5.50003 9.00005H10.5C10.7762 9.00005 11.0001 9.22388 11.0001 9.50002C11.0001 9.7763 10.7762 10.0001 10.5 10.0001H5.50003C5.22383 10.0001 5.00002 9.7763 5.00002 9.50002C5.00002 9.22388 5.22383 9.00005 5.50003 9.00005Z" fill="white"/>
</svg>
