<svg width="22" height="23" viewBox="0 0 22 23" fill="none" xmlns="http://www.w3.org/2000/svg">
<path fill-rule="evenodd" clip-rule="evenodd" d="M11 1.49999C16.5229 1.49999 21 5.97716 21 11.5C21 17.0229 16.5229 21.5 11 21.5C5.47712 21.5 0.999966 17.0229 0.999966 11.5C0.999966 5.97716 5.47712 1.49999 11 1.49999Z" fill="#E8E8EB"/>
<path opacity="0.5" fill-rule="evenodd" clip-rule="evenodd" d="M6.79943 8.61231C7.54086 8.61231 8.14192 8.0065 8.14192 7.25968C8.14192 6.51266 7.54086 5.90723 6.79943 5.90723C6.05809 5.90723 5.45703 6.51266 5.45703 7.25968C5.45703 8.0065 6.05809 8.61231 6.79943 8.61231ZM5.67532 16.9024H7.94532V9.57224H5.67532V16.9024ZM12.9571 11.4103C12.0486 11.4103 11.5739 12.0239 11.5739 13.0547V16.9024H9.39662V9.57224H11.5739V10.5595C11.5739 10.5595 12.2287 9.34841 13.7838 9.34841C15.339 9.34841 16.4521 10.2977 16.4521 12.2611V16.9024H14.193V13.0547C14.193 11.9992 13.792 11.4103 12.9571 11.4103Z" fill="black"/>
</svg>
