<svg width="14" height="15" viewBox="0 0 14 15" fill="none" xmlns="http://www.w3.org/2000/svg">
<path opacity="0.6" fill-rule="evenodd" clip-rule="evenodd" d="M13.5367 5.84982L12.4529 6.48083C12.5137 6.81213 12.5536 7.15063 12.5536 7.50002C12.5536 7.84925 12.5137 8.18775 12.4529 8.51906L13.5367 9.15002C13.9794 9.40774 14.1311 9.97851 13.8756 10.4249L12.9499 12.0416C12.6943 12.4879 12.1282 12.6409 11.6855 12.3832L10.5905 11.7458C10.079 12.1848 9.49745 12.5438 8.85108 12.7746V13.5665C8.85108 14.082 8.43668 14.4999 7.9254 14.4999H6.07415C5.56303 14.4999 5.14863 14.082 5.14863 13.5665V12.7746C4.50226 12.5438 3.92073 12.1848 3.40911 11.7458L2.31421 12.3832C1.87145 12.6409 1.30535 12.4879 1.04975 12.0416L0.124149 10.4249C-0.131435 9.97851 0.0202614 9.40774 0.462949 9.15002L1.54676 8.51906C1.48601 8.18775 1.44612 7.84925 1.44612 7.50002C1.44612 7.15063 1.48601 6.81213 1.54676 6.48083L0.462949 5.84982C0.0202614 5.59214 -0.131435 5.02123 0.124149 4.57495L1.04975 2.95833C1.30535 2.51187 1.87145 2.35885 2.31421 2.61668L3.40911 3.25412C3.92073 2.81489 4.50226 2.45608 5.14863 2.22538V1.43332C5.14863 0.917895 5.56303 0.5 6.07415 0.5H7.9254C8.43668 0.5 8.85108 0.917895 8.85108 1.43332V2.22538C9.49745 2.45608 10.079 2.81489 10.5905 3.25412L11.6855 2.61668C12.1282 2.35885 12.6943 2.51187 12.9499 2.95833L13.8756 4.57495C14.1311 5.02123 13.9794 5.59214 13.5367 5.84982ZM12.8425 4.63737L12.3797 3.82904C12.2519 3.60597 11.9688 3.52935 11.7475 3.65828L10.4616 4.40691C9.80887 3.66453 8.92684 3.13199 7.9254 2.92701V1.89994C7.9254 1.64221 7.7182 1.43332 7.46261 1.43332H6.53701C6.28133 1.43332 6.07415 1.64221 6.07415 1.89994V2.92701C5.07279 3.13199 4.19076 3.66453 3.53812 4.40691L2.25221 3.65828C2.03082 3.52935 1.74778 3.60597 1.61994 3.82904L1.15722 4.63737C1.02938 4.86058 1.10524 5.14611 1.32653 5.2749L2.61762 6.02649C2.46383 6.49069 2.3717 6.98346 2.3717 7.50002C2.3717 8.01643 2.46383 8.50914 2.61762 8.97345L1.32653 9.72498C1.10524 9.85392 1.02938 10.1393 1.15722 10.3625L1.61994 11.1707C1.74778 11.3939 2.03082 11.4704 2.25221 11.3415L3.53804 10.593C4.19076 11.3354 5.07279 11.8679 6.07415 12.0729V13.1C6.07415 13.3577 6.28133 13.5665 6.53701 13.5665H7.46261C7.7182 13.5665 7.9254 13.3577 7.9254 13.1V12.0729C8.92684 11.8679 9.80887 11.3354 10.4616 10.593L11.7475 11.3415C11.9688 11.4704 12.2519 11.3939 12.3797 11.1707L12.8425 10.3625C12.9703 10.1393 12.8944 9.85392 12.6731 9.72498L11.382 8.97345C11.5359 8.50914 11.6279 8.01643 11.6279 7.50002C11.6279 6.98346 11.5359 6.49069 11.382 6.02649L12.6731 5.2749C12.8944 5.14611 12.9703 4.86058 12.8425 4.63737ZM6.99981 9.83319C5.72175 9.83319 4.68577 8.78858 4.68577 7.50002C4.68577 6.21118 5.72175 5.16657 6.99981 5.16657C8.2778 5.16657 9.31386 6.21118 9.31386 7.50002C9.31386 8.78858 8.2778 9.83319 6.99981 9.83319ZM6.99981 6.09993C6.23303 6.09993 5.61143 6.72674 5.61143 7.50002C5.61143 8.27311 6.23303 8.89982 6.99981 8.89982C7.7666 8.89982 8.3882 8.27311 8.3882 7.50002C8.3882 6.72674 7.7666 6.09993 6.99981 6.09993Z" fill="white"/>
</svg>
