<svg width="10" height="14" viewBox="0 0 10 14" fill="none" xmlns="http://www.w3.org/2000/svg">
<path opacity="0.4" fill-rule="evenodd" clip-rule="evenodd" d="M7.40903 13.5001H3.09084C1.65999 13.5001 0.5 12.4088 0.5 11.0625V9.43756C0.5 8.37044 1.23357 7.47328 2.24853 7.14311C1.6957 6.44139 1.36358 5.54255 1.36358 4.56261C1.36358 2.3189 3.10361 0.5 5.25002 0.5C7.39635 0.5 9.13629 2.3189 9.13629 4.56261C9.13629 5.54255 8.80418 6.44139 8.25143 7.14311C9.26639 7.47328 9.99996 8.37044 9.99996 9.43756V11.0625C9.99996 12.4088 8.83997 13.5001 7.40903 13.5001ZM8.2727 4.56261C8.2727 2.76761 6.91945 1.31253 5.25002 1.31253C3.5806 1.31253 2.22733 2.76761 2.22733 4.56261C2.22733 6.35747 3.5806 7.81255 5.25002 7.81255C6.91945 7.81255 8.2727 6.35747 8.2727 4.56261ZM9.13629 9.64073C9.13629 8.77713 8.43968 8.05759 7.50592 7.86628C6.86947 8.34212 6.09216 8.62502 5.25002 8.62502C4.40788 8.62502 3.63049 8.34212 2.99404 7.86628C2.06036 8.05759 1.36358 8.77713 1.36358 9.64073V10.8594C1.36358 11.869 2.3127 12.6876 3.48346 12.6876H7.0165C8.18733 12.6876 9.13629 11.869 9.13629 10.8594V9.64073Z" fill="black"/>
</svg>
